<svg id="Capa_1" enable-background="new 0 0 508.425 508.425" viewBox="0 0 508.425 508.425" xmlns="http://www.w3.org/2000/svg">
    <g id="XMLID_230_">
        <path id="XMLID_17_" d="m396.964 97.167h77.282v76h-77.282z" fill="#3DD9EB"></path>
        <path id="XMLID_16_" d="m396.964 212.252h77.282v76h-77.282z" fill="#3DD9EB"></path>
        <path id="XMLID_720_" d="m421.964 0h-327.68c-33.142 0-60.106 26.963-60.106 60.105v403.856l387.786-44.461z" fill="#00B3D7"></path>
        <path id="XMLID_1490_" d="m234.081 0v440.902l187.883-21.402v-419.5z" fill="#6C19FF"></path>
        <path id="XMLID_186_" d="m78.641 419.5c-24.517 0-44.462 19.945-44.462 44.462s19.946 44.463 44.462 44.463h343.324v-88.925z" fill="#3DD9EB"></path>
        <path id="XMLID_383_" d="m234.081 419.5h187.883v88.925h-187.883z" fill="#3DD9EB"></path>
        <path id="XMLID_772_" d="m155.171 132.831h-27.167l-33.703 77.098h30.256l4.841-12.565h23.966l4.841 12.565h30.668zm-10.431 42.023h-6.716l3.358-8.69z" fill="#6C19FF"></path>
        <path id="XMLID_717_" d="m216.131 166.408v22.509h17.95l7.95-10v-2.509l-7.95-10z" fill="#6C19FF"></path>
        <path id="XMLID_719_" d="m325.429 186.08 30.011-34.887v-18.362h-68.549v23.849h28.981l-30.011 34.886v18.363h71.226v-23.849z" fill="#00B3D7"></path>
        <path id="XMLID_1547_" d="m288.359 287.996-54.278 10h-59.289v-30h59.289l54.278 10z" fill="#6C19FF"></path>
        <g fill="#00B3D7">
            <path id="XMLID_1478_" d="m234.081 166.408h17.95v22.509h-17.95z"></path>
            <path id="XMLID_1450_" d="m234.081 267.996h59.289v30h-59.289z"></path>
        </g>
    </g>
</svg>